<svg class="no-squish" width="20" height="20" viewBox="0 0 20 20" fill="none" xmlns="http://www.w3.org/2000/svg">
<path d="M9.9998 15.8329C9.83428 15.8338 9.67222 15.7855 9.53429 15.694C9.39636 15.6025 9.2888 15.472 9.22533 15.3191C9.16185 15.1662 9.14534 14.9979 9.1779 14.8356C9.21046 14.6733 9.29061 14.5244 9.40813 14.4079L13.8248 9.99953L9.40813 5.5912C9.27161 5.43178 9.20027 5.22672 9.20838 5.01699C9.21648 4.80726 9.30342 4.60831 9.45183 4.4599C9.60024 4.31149 9.79919 4.22454 10.0089 4.21644C10.2187 4.20834 10.4237 4.27968 10.5831 4.4162L15.5831 9.4162C15.7383 9.57234 15.8255 9.78355 15.8255 10.0037C15.8255 10.2239 15.7383 10.4351 15.5831 10.5912L10.5831 15.5912C10.4279 15.7452 10.2184 15.8319 9.9998 15.8329Z" fill="#303030"/>
<path d="M4.9998 15.8332C4.83428 15.8341 4.67222 15.7858 4.53429 15.6943C4.39636 15.6028 4.2888 15.4723 4.22533 15.3194C4.16185 15.1665 4.14534 14.9982 4.1779 14.8359C4.21046 14.6736 4.29061 14.5247 4.40813 14.4082L8.8248 9.99983L4.40813 5.5915C4.25121 5.43458 4.16306 5.22175 4.16306 4.99983C4.16306 4.77791 4.25121 4.56508 4.40813 4.40816C4.56505 4.25124 4.77788 4.16309 4.9998 4.16309C5.22172 4.16309 5.43455 4.25124 5.59147 4.40816L10.5915 9.40816C10.7467 9.5643 10.8338 9.77551 10.8338 9.99566C10.8338 10.2158 10.7467 10.427 10.5915 10.5832L5.59147 15.5832C5.51429 15.6619 5.42225 15.7245 5.32069 15.7675C5.21913 15.8104 5.11006 15.8327 4.9998 15.8332Z" fill="#303030"/>
</svg>
